# xmcd
#
# Track frame offsets: 
#        150
#        16430
#        48815
#        68876
#        86058
#        109310
#        129365
#        149372
#        173734
#        189249
#        210600
#        226505
#        247005
#        270618
#        286004
#        312829
#        328961
#        354054
#
# Disc length: 4779 seconds
#
# Revision: 0
# Processed by: cddbd v1.5.2PL0 Copyright (c) Steve Scherf et al.
# Submitted via: ExactAudioCopy v1.3
#
DISCID=fa12a912
DTITLE=Various Artist - Blues - Golden Age '60s -'70s  vol.08  CD1
DYEAR=2018
DGENRE=Rock
TTITLE0=Black Sabbath - 1970 - Behind The Wall Of Sleep
TTITLE1=Livin' Blues - 1975 - Black Spider Woman
TTITLE2=ZZ Top (1972) - Just Got Paid
TTITLE3=Johnny Winter - 1973 - Rock Me Baby
TTITLE4=Uriah Heep - 1970 - Lucy Blues
TTITLE5=Robin Trower - 1974 - Little Bit Of Sympathy
TTITLE6=The Beatles - 1968 - Helter Skelter
TTITLE7=Rare Earth - 1975 - Keeping Me
TTITLE8=Jimi Hendrix - 1970 - Bleeding Heart
TTITLE9=Nazareth (1976) - You're The Violin
TTITLE10=Deep Purple (1972) - When A Blind Man Cries
TTITLE11=Rory Gallagher (1976) - Public Enemy
TTITLE12=Cuby and Blizzards - 1970 - Too Blind To See
TTITLE13=Geordie (1974) - Got To Know
TTITLE14=Humble Pie - 1975 - Let Me Be Your Lovemaker
TTITLE15=Maggie Bell - 1975 - Wishing Well
TTITLE16=The Rolling Stones - 1971 - Sister Morphine
TTITLE17=The Doors (1970) - Talking Blues
EXTD=
EXTT0=
EXTT1=
EXTT2=
EXTT3=
EXTT4=
EXTT5=
EXTT6=
EXTT7=
EXTT8=
EXTT9=
EXTT10=
EXTT11=
EXTT12=
EXTT13=
EXTT14=
EXTT15=
EXTT16=
EXTT17=
PLAYORDER=
